<svg width="92" height="59" viewBox="0 0 92 59" fill="none" xmlns="http://www.w3.org/2000/svg">
<path d="M20.826 34.5003L19.5666 30.8851H18.9719C18.1324 32.2219 16.9605 33.239 15.4562 33.9539C13.952 34.663 12.1913 35.0176 10.1681 35.0176C6.96144 35.0176 4.46021 34.0876 2.67613 32.2335C0.892041 30.3794 0 27.7581 0 24.3696V5.42773H10.0632V21.3124C10.0632 23.213 10.3314 24.6486 10.8736 25.6251C11.4158 26.6015 12.302 27.0897 13.5381 27.0897C15.2697 27.0897 16.5057 26.4097 17.2462 25.0497C17.9866 23.6896 18.3539 21.3938 18.3539 18.1622V5.42773H28.4171V34.5003H20.826Z" fill="white"/>
<path d="M52.8699 35.0115C51.3948 35.0115 50.0713 34.7674 48.9053 34.2792C47.7392 33.791 46.5789 32.9133 45.4304 31.6463H44.9698C45.2788 33.6805 45.4304 34.9476 45.4304 35.4416V47.1183H35.3672V5.42749H43.553L44.9698 9.12404H45.4304C47.3019 6.31675 49.8847 4.91602 53.1789 4.91602C56.473 4.91602 58.9334 6.25282 60.77 8.92061C62.6066 11.5884 63.5219 15.2501 63.5219 19.9056C63.5219 24.5612 62.5658 28.281 60.6534 30.9779C58.741 33.6747 56.1465 35.0173 52.864 35.0173L52.8699 35.0115ZM49.4999 12.7915C48.0249 12.7915 46.9929 13.3204 46.3982 14.3724C45.8035 15.4244 45.4828 16.9879 45.4304 19.0571V19.8533C45.4304 22.3526 45.7627 24.1543 46.4332 25.2703C47.1037 26.3862 48.159 26.9384 49.5991 26.9384C50.8876 26.9384 51.8204 26.3862 52.4035 25.2819C52.9865 24.1776 53.278 22.3526 53.278 19.801C53.278 17.2495 52.9865 15.5116 52.4035 14.4248C51.8204 13.3379 50.8526 12.7973 49.4941 12.7973L49.4999 12.7915Z" fill="white"/>
<path d="M76.738 18.1863C76.7613 17.6284 76.808 17.1227 76.7963 16.402H70.208L80.9942 0L91.8211 16.3846H85.2328C85.2503 17.0123 85.2037 17.8376 85.1629 18.6222" fill="#E56228"/>
<path d="M75.3462 16.4372C75.3462 24.5336 72.1862 32.5835 66.5541 38.3433C60.9628 44.1032 53.2259 47.3987 45.2441 47.3987V58.9998C56.3043 58.9998 66.8339 54.5361 74.6524 46.6083C82.5117 38.6398 86.9253 27.7884 86.9253 16.4023H75.3404V16.443L75.3462 16.4372Z" fill="#E56228"/>
</svg>
