<svg width="88" height="88" viewBox="0 0 88 88" fill="none" xmlns="http://www.w3.org/2000/svg">
<path d="M41.6391 68.6829C34.7708 68.3252 28.9756 65.6781 24.2537 60.7415C19.5317 55.8049 17.1708 49.8667 17.1708 42.9268C17.1708 35.7724 19.6748 29.6911 24.683 24.6829C29.6911 19.6748 35.7724 17.1707 42.9269 17.1707C49.8667 17.1707 55.8049 19.5317 60.7415 24.2537C65.6781 28.9756 68.3252 34.7707 68.683 41.639L59.6683 38.9561C58.7382 35.0927 56.735 31.9268 53.6586 29.4585C50.5821 26.9902 47.0049 25.7561 42.9269 25.7561C38.2049 25.7561 34.1626 27.4374 30.8 30.8C27.4374 34.1626 25.7561 38.2049 25.7561 42.9268C25.7561 47.0049 26.9903 50.5821 29.4586 53.6585C31.9269 56.735 35.0927 58.7382 38.9561 59.6683L41.6391 68.6829ZM46.7903 85.639C46.1464 85.7821 45.5025 85.8537 44.8586 85.8537H42.9269C36.9886 85.8537 31.4082 84.7268 26.1854 82.4732C20.9626 80.2195 16.4195 77.161 12.5561 73.2976C8.69271 69.4342 5.63418 64.8911 3.38052 59.6683C1.12686 54.4455 2.95839e-05 48.865 2.95839e-05 42.9268C2.95839e-05 36.9886 1.12686 31.4081 3.38052 26.1854C5.63418 20.9626 8.69271 16.4195 12.5561 12.5561C16.4195 8.69269 20.9626 5.63415 26.1854 3.38049C31.4082 1.12683 36.9886 3.4489e-06 42.9269 3.4489e-06C48.8651 3.4489e-06 54.4456 1.12683 59.6683 3.38049C64.8911 5.63415 69.4342 8.69269 73.2976 12.5561C77.161 16.4195 80.2195 20.9626 82.4732 26.1854C84.7269 31.4081 85.8537 36.9886 85.8537 42.9268V44.8585C85.8537 45.5024 85.7821 46.1463 85.639 46.7902L77.2683 44.2146V42.9268C77.2683 33.3398 73.9415 25.2195 67.2878 18.5659C60.6342 11.9122 52.5139 8.58537 42.9269 8.58537C33.3399 8.58537 25.2195 11.9122 18.5659 18.5659C11.9122 25.2195 8.5854 33.3398 8.5854 42.9268C8.5854 52.5138 11.9122 60.6342 18.5659 67.2878C25.2195 73.9415 33.3399 77.2683 42.9269 77.2683H44.2147L46.7903 85.639ZM79.522 88L61.1708 69.6488L55.8049 85.8537L42.9269 42.9268L85.8537 55.8049L69.6488 61.1707L88 79.5219L79.522 88Z" fill="#FF6600"/>
<path d="M69.7928 61.4479L87.9997 79.6548L79.6548 87.9997L61.4479 69.7928L55.379 86.4824L42.4824 42.4824L87.241 55.379L69.7928 61.4479Z" fill="white"/>
</svg>
