<svg width="66" height="98" viewBox="0 0 66 98" fill="none" xmlns="http://www.w3.org/2000/svg">
<path d="M0 12.3711H56.4781V97.895H6C2.68629 97.895 0 95.2087 0 91.895V12.3711Z" fill="#E56228"/>
<path d="M6.45508 6.45312H56.9331C60.2468 6.45312 62.9331 9.13942 62.9331 12.4531V91.9771H6.45508V6.45312Z" fill="#444444"/>
<rect x="15.5977" y="19.3633" width="30.6595" height="2.15155" rx="1.07577" fill="white"/>
<rect x="11.2949" y="38.1895" width="46.7961" height="2.15155" rx="1.07577" fill="white"/>
<rect x="11.2949" y="58.6289" width="46.7961" height="1.61366" rx="0.806829" fill="white"/>
<rect x="11.2949" y="78.5312" width="46.7961" height="1.61366" rx="0.806829" fill="white"/>
<rect x="15.5986" y="29.584" width="12.3714" height="2.15155" rx="1.07577" fill="white"/>
<rect x="15.5986" y="48.4102" width="12.3714" height="2.15155" rx="1.07577" fill="white"/>
<rect x="15.5986" y="67.2363" width="12.3714" height="1.61366" rx="0.806829" fill="white"/>
<rect x="32.8105" y="29.584" width="20.9776" height="2.15155" rx="1.07577" fill="white"/>
<rect x="32.8105" y="48.4102" width="20.9776" height="2.15155" rx="1.07577" fill="white"/>
<rect x="32.8105" y="67.2363" width="20.9776" height="1.61366" rx="0.806829" fill="white"/>
<path d="M61.8634 1.60491C62.3752 0.718543 63.5086 0.41485 64.3949 0.926593C65.2813 1.43834 65.585 2.57173 65.0733 3.45809L53.771 23.0341L50.5612 21.181L61.8634 1.60491Z" fill="#E56228"/>
<path d="M50.5605 24.7418V20.9766L53.7879 23.1628L50.5605 24.7418Z" fill="white"/>
</svg>
